<mxfile host="Electron" agent="Mozilla/5.0 (Windows NT 10.0; Win64; x64) AppleWebKit/537.36 (KHTML, like Gecko) draw.io/28.1.2 Chrome/138.0.7204.243 Electron/37.4.0 Safari/537.36" version="28.1.2">
  <diagram name="Page-1" id="Y1pOL4_n1JfCNJY6o0Lu">
    <mxGraphModel dx="464" dy="832" grid="1" gridSize="10" guides="1" tooltips="1" connect="1" arrows="1" fold="1" page="1" pageScale="1" pageWidth="850" pageHeight="1100" math="0" shadow="0">
      <root>
        <mxCell id="0" />
        <mxCell id="1" parent="0" />
        <mxCell id="zgQaPuAVJG3rTR5ao3Av-1" value="" style="shape=umlLifeline;perimeter=lifelinePerimeter;whiteSpace=wrap;html=1;container=1;dropTarget=0;collapsible=0;recursiveResize=0;outlineConnect=0;portConstraint=eastwest;newEdgeStyle={&quot;curved&quot;:0,&quot;rounded&quot;:0};participant=umlActor;" parent="1" vertex="1">
          <mxGeometry x="220" y="130" width="20" height="910" as="geometry" />
        </mxCell>
        <mxCell id="zgQaPuAVJG3rTR5ao3Av-7" value="" style="html=1;points=[[0,0,0,0,5],[0,1,0,0,-5],[1,0,0,0,5],[1,1,0,0,-5]];perimeter=orthogonalPerimeter;outlineConnect=0;targetShapes=umlLifeline;portConstraint=eastwest;newEdgeStyle={&quot;curved&quot;:0,&quot;rounded&quot;:0};" parent="zgQaPuAVJG3rTR5ao3Av-1" vertex="1">
          <mxGeometry x="5" y="80" width="10" height="830" as="geometry" />
        </mxCell>
        <mxCell id="zgQaPuAVJG3rTR5ao3Av-2" value=":Game" style="shape=umlLifeline;perimeter=lifelinePerimeter;whiteSpace=wrap;html=1;container=1;dropTarget=0;collapsible=0;recursiveResize=0;outlineConnect=0;portConstraint=eastwest;newEdgeStyle={&quot;curved&quot;:0,&quot;rounded&quot;:0};" parent="1" vertex="1">
          <mxGeometry x="490" y="140" width="100" height="910" as="geometry" />
        </mxCell>
        <mxCell id="zgQaPuAVJG3rTR5ao3Av-3" value="alt" style="shape=umlFrame;whiteSpace=wrap;html=1;pointerEvents=0;" parent="1" vertex="1">
          <mxGeometry x="20" y="280" width="740" height="770" as="geometry" />
        </mxCell>
        <mxCell id="zgQaPuAVJG3rTR5ao3Av-4" value="" style="endArrow=none;dashed=1;html=1;dashPattern=1 3;strokeWidth=2;rounded=0;" parent="1" edge="1">
          <mxGeometry width="50" height="50" relative="1" as="geometry">
            <mxPoint x="10" y="400" as="sourcePoint" />
            <mxPoint x="767" y="400" as="targetPoint" />
          </mxGeometry>
        </mxCell>
        <mxCell id="zgQaPuAVJG3rTR5ao3Av-5" value="" style="endArrow=none;dashed=1;html=1;dashPattern=1 3;strokeWidth=2;rounded=0;" parent="1" edge="1">
          <mxGeometry width="50" height="50" relative="1" as="geometry">
            <mxPoint x="16.5" y="760" as="sourcePoint" />
            <mxPoint x="773.5" y="760" as="targetPoint" />
          </mxGeometry>
        </mxCell>
        <mxCell id="zgQaPuAVJG3rTR5ao3Av-8" value="[The cell conatins a mine ]" style="text;html=1;align=center;verticalAlign=middle;whiteSpace=wrap;rounded=0;" parent="1" vertex="1">
          <mxGeometry x="40" y="330" width="160" height="30" as="geometry" />
        </mxCell>
        <mxCell id="zgQaPuAVJG3rTR5ao3Av-9" value="[The cell is empty ]" style="text;html=1;align=center;verticalAlign=middle;whiteSpace=wrap;rounded=0;" parent="1" vertex="1">
          <mxGeometry x="40" y="450" width="160" height="30" as="geometry" />
        </mxCell>
        <mxCell id="zgQaPuAVJG3rTR5ao3Av-10" value="[The cell is numbered ]" style="text;html=1;align=center;verticalAlign=middle;whiteSpace=wrap;rounded=0;" parent="1" vertex="1">
          <mxGeometry x="34.75" y="770" width="160" height="30" as="geometry" />
        </mxCell>
        <mxCell id="zgQaPuAVJG3rTR5ao3Av-11" value="" style="endArrow=classic;html=1;rounded=0;" parent="1" target="zgQaPuAVJG3rTR5ao3Av-2" edge="1">
          <mxGeometry width="50" height="50" relative="1" as="geometry">
            <mxPoint x="235.5" y="250" as="sourcePoint" />
            <mxPoint x="535" y="250" as="targetPoint" />
          </mxGeometry>
        </mxCell>
        <mxCell id="zgQaPuAVJG3rTR5ao3Av-13" style="edgeStyle=orthogonalEdgeStyle;rounded=0;orthogonalLoop=1;jettySize=auto;html=1;curved=0;exitX=0;exitY=1;exitDx=0;exitDy=-5;exitPerimeter=0;" parent="1" target="zgQaPuAVJG3rTR5ao3Av-7" edge="1">
          <mxGeometry relative="1" as="geometry">
            <mxPoint x="534.5" y="345" as="sourcePoint" />
            <Array as="points">
              <mxPoint x="310" y="345" />
              <mxPoint x="310" y="345" />
            </Array>
          </mxGeometry>
        </mxCell>
        <mxCell id="zgQaPuAVJG3rTR5ao3Av-14" value="Reveal cell" style="text;html=1;align=center;verticalAlign=middle;whiteSpace=wrap;rounded=0;" parent="1" vertex="1">
          <mxGeometry x="350" y="220" width="70" height="30" as="geometry" />
        </mxCell>
        <mxCell id="zgQaPuAVJG3rTR5ao3Av-26" style="edgeStyle=orthogonalEdgeStyle;rounded=0;orthogonalLoop=1;jettySize=auto;html=1;curved=0;exitX=0;exitY=1;exitDx=0;exitDy=-5;exitPerimeter=0;" parent="1" source="zgQaPuAVJG3rTR5ao3Av-18" target="zgQaPuAVJG3rTR5ao3Av-7" edge="1">
          <mxGeometry relative="1" as="geometry">
            <Array as="points">
              <mxPoint x="310" y="595" />
              <mxPoint x="310" y="595" />
            </Array>
          </mxGeometry>
        </mxCell>
        <mxCell id="zgQaPuAVJG3rTR5ao3Av-18" value="" style="html=1;points=[[0,0,0,0,5],[0,1,0,0,-5],[1,0,0,0,5],[1,1,0,0,-5]];perimeter=orthogonalPerimeter;outlineConnect=0;targetShapes=umlLifeline;portConstraint=eastwest;newEdgeStyle={&quot;curved&quot;:0,&quot;rounded&quot;:0};" parent="1" vertex="1">
          <mxGeometry x="534.75" y="250" width="10" height="790" as="geometry" />
        </mxCell>
        <mxCell id="zgQaPuAVJG3rTR5ao3Av-31" style="edgeStyle=orthogonalEdgeStyle;rounded=0;orthogonalLoop=1;jettySize=auto;html=1;curved=0;exitX=0;exitY=1;exitDx=0;exitDy=-5;exitPerimeter=0;" parent="1" target="zgQaPuAVJG3rTR5ao3Av-7" edge="1">
          <mxGeometry relative="1" as="geometry">
            <mxPoint x="534.5" y="935" as="sourcePoint" />
            <Array as="points">
              <mxPoint x="320" y="935" />
              <mxPoint x="320" y="935" />
            </Array>
          </mxGeometry>
        </mxCell>
        <mxCell id="zgQaPuAVJG3rTR5ao3Av-24" value="Game over" style="text;html=1;align=center;verticalAlign=middle;whiteSpace=wrap;rounded=0;" parent="1" vertex="1">
          <mxGeometry x="360" y="350" width="70" height="30" as="geometry" />
        </mxCell>
        <mxCell id="zgQaPuAVJG3rTR5ao3Av-25" value="Loop" style="shape=umlFrame;whiteSpace=wrap;html=1;pointerEvents=0;" parent="1" vertex="1">
          <mxGeometry x="50" y="510" width="680" height="200" as="geometry" />
        </mxCell>
        <mxCell id="zgQaPuAVJG3rTR5ao3Av-27" value="[For every neighbor]" style="text;html=1;align=center;verticalAlign=middle;whiteSpace=wrap;rounded=0;" parent="1" vertex="1">
          <mxGeometry x="90" y="510" width="160" height="30" as="geometry" />
        </mxCell>
        <mxCell id="zgQaPuAVJG3rTR5ao3Av-28" value="Reveal the neighbor" style="text;html=1;align=center;verticalAlign=middle;whiteSpace=wrap;rounded=0;" parent="1" vertex="1">
          <mxGeometry x="333.75" y="570" width="112.5" height="30" as="geometry" />
        </mxCell>
        <mxCell id="zgQaPuAVJG3rTR5ao3Av-29" value="Opt" style="shape=umlFrame;whiteSpace=wrap;html=1;pointerEvents=0;" parent="1" vertex="1">
          <mxGeometry x="50" y="870" width="680" height="150" as="geometry" />
        </mxCell>
        <mxCell id="zgQaPuAVJG3rTR5ao3Av-30" value="[player won]" style="text;html=1;align=center;verticalAlign=middle;whiteSpace=wrap;rounded=0;" parent="1" vertex="1">
          <mxGeometry x="110" y="870" width="90" height="30" as="geometry" />
        </mxCell>
        <mxCell id="zgQaPuAVJG3rTR5ao3Av-32" value="Game ends player wins" style="text;html=1;align=center;verticalAlign=middle;whiteSpace=wrap;rounded=0;" parent="1" vertex="1">
          <mxGeometry x="350" y="900" width="70" height="30" as="geometry" />
        </mxCell>
      </root>
    </mxGraphModel>
  </diagram>
</mxfile>
